<svg width="6" height="9" viewBox="0 0 6 9" fill="none" xmlns="http://www.w3.org/2000/svg">
<path d="M3.23153 8.12074C2.67045 8.11837 2.19105 7.97041 1.79332 7.67685C1.3956 7.38329 1.09138 6.95597 0.880682 6.39489C0.669981 5.83381 0.564631 5.15791 0.564631 4.36719C0.564631 3.57884 0.669981 2.9053 0.880682 2.34659C1.09375 1.78788 1.39915 1.36174 1.79688 1.06818C2.19697 0.774621 2.67519 0.627841 3.23153 0.627841C3.78788 0.627841 4.26491 0.775805 4.66264 1.07173C5.06037 1.36529 5.36458 1.79143 5.57528 2.35014C5.78835 2.90649 5.89489 3.57884 5.89489 4.36719C5.89489 5.16027 5.78954 5.83736 5.57884 6.39844C5.36813 6.95715 5.06392 7.38447 4.66619 7.6804C4.26847 7.97396 3.79025 8.12074 3.23153 8.12074ZM3.23153 7.17259C3.72396 7.17259 4.10866 6.93229 4.38565 6.4517C4.66501 5.97112 4.80469 5.27628 4.80469 4.36719C4.80469 3.76349 4.74077 3.25331 4.61293 2.83665C4.48745 2.41761 4.30634 2.10038 4.0696 1.88494C3.83523 1.66714 3.55587 1.55824 3.23153 1.55824C2.74148 1.55824 2.35677 1.79972 2.07741 2.28267C1.79806 2.76562 1.6572 3.46046 1.65483 4.36719C1.65483 4.97325 1.71757 5.4858 1.84304 5.90483C1.97088 6.3215 2.15199 6.63755 2.38636 6.85298C2.62074 7.06605 2.90246 7.17259 3.23153 7.17259Z" fill="white"/>
</svg>
