<svg width="31" height="31" viewBox="0 0 31 31" fill="none" xmlns="http://www.w3.org/2000/svg">
<path d="M1.23116 17.0768C-0.086599 17.0407 -0.00229338 17.0677 0.00272475 15.7189C0.00272475 15.3676 0.00272475 15.0163 0.00272475 14.6641C0.00272475 14.2516 0.20345 14.093 0.604901 14.0368C2.26089 13.81 3.72819 14.4011 5.15735 15.0946C5.40424 15.2151 5.49256 15.6627 5.69429 16.031H6.59153C6.49117 15.0214 6.39081 14.0328 6.29044 13.0442C6.21015 12.2805 6.11782 11.5177 6.03954 10.7539C5.98634 10.2421 6.167 10.0363 6.67785 10.0313C7.46469 10.0233 8.25153 10.0092 9.03637 10.0373C9.43782 10.0514 9.56528 9.91791 9.54621 9.52048C9.47395 7.96987 9.63854 6.45841 10.2849 5.01821C11.0317 3.36131 12.2889 1.9867 13.8726 1.09523C15.4564 0.20376 17.2838 -0.157829 19.0877 0.0633018C22.8613 0.539021 25.8541 3.34817 26.4794 7.05958C26.6089 7.82836 26.6109 8.62624 26.5888 9.40907C26.5737 9.93999 26.7564 10.0654 27.2492 10.0394C27.9828 10.0002 28.7205 10.0243 29.4572 10.0313C29.976 10.0363 30.1597 10.232 30.1055 10.7439C29.8596 13.0854 29.6167 15.4268 29.3518 17.7693C29.2886 18.3253 29.2514 18.8121 29.8476 19.1402C30.0001 19.2245 30.1055 19.5296 30.1065 19.7344C30.1226 22.9641 30.1186 26.1927 30.1165 29.4224C30.1165 29.9503 29.956 30.1109 29.4311 30.1109C20.5148 30.1109 11.5983 30.1109 2.68141 30.1109C1.21511 30.1109 0.104086 28.9647 0.192406 27.4954C0.323881 25.2945 0.515576 23.0965 0.684185 20.8966C0.751428 20.0305 0.800607 19.1613 0.904984 18.3002C0.952155 17.8917 1.11274 17.5033 1.23116 17.0768ZM17.7067 25.0677C17.6575 24.3742 17.6194 23.7409 17.5692 23.1086C17.4437 21.5429 17.3374 19.9763 17.1768 18.4146C17.0875 17.5435 16.4943 17.0637 15.6121 17.0577C14.3917 17.0507 13.1713 17.0577 11.9499 17.0577C11.8234 17.0577 11.696 17.0798 11.5484 17.0938C11.5484 17.5595 11.5484 17.9971 11.5484 18.4257C11.5484 18.8542 11.3477 19.069 10.9091 19.066C10.0059 19.0599 9.10261 19.0569 8.19934 19.066C7.73768 19.066 7.51889 18.8652 7.53093 18.4036C7.54097 17.961 7.53093 17.5164 7.53093 17.0567C6.08169 17.0567 4.71174 17.0417 3.34179 17.0617C2.55996 17.0728 1.97987 17.5906 1.90058 18.3845C1.74401 19.9632 1.63161 21.5459 1.50616 23.1276C1.45597 23.769 1.41985 24.4103 1.37669 25.0667L17.7067 25.0677ZM28.2448 17.9098L28.3451 17.8094C28.58 15.5673 28.8158 13.3252 29.0527 11.0661H27.1057C27.1057 12.1701 27.1057 13.2339 27.1057 14.3018C27.1057 14.9039 26.9622 15.0475 26.378 15.0495C25.541 15.0535 24.7047 15.0535 23.869 15.0495C23.2206 15.0495 23.0952 14.917 23.0942 14.2466C23.0942 13.6277 23.0942 13.0084 23.0942 12.3888V11.0731H13.0479C13.0479 12.1851 13.0479 13.256 13.0479 14.3258C13.0479 14.8919 12.8973 15.0434 12.3453 15.0464C11.5254 15.0464 10.7054 15.0464 9.88644 15.0464C9.14978 15.0464 9.03837 14.9381 9.03737 14.2185C9.03737 13.1697 9.03737 12.1209 9.03737 11.059H7.08732C7.26597 12.7421 7.4416 14.3891 7.61924 16.0531H8.2425C10.7184 16.0531 13.1934 16.0481 15.6693 16.0531C17.0102 16.0531 18.0389 16.9634 18.1784 18.2912C18.3059 19.5206 18.3791 20.7551 18.4795 21.9875C18.5678 23.0534 18.7043 24.1172 18.7344 25.1841C18.7705 26.4798 19.2362 27.8086 18.4654 29.0751H21.0809V28.5051C21.0809 26.0452 21.1632 23.5813 21.0478 21.1274C20.9856 19.8006 21.2927 18.8291 22.484 18.2018C22.5127 18.1843 22.5385 18.1623 22.5602 18.1366C23.3902 17.2554 24.3808 16.9022 25.6083 17.0326C26.5577 17.141 27.5824 16.856 28.2478 17.9098H28.2448ZM18.078 10.0293C19.7491 10.0293 21.4201 10.0173 23.0962 10.0373C23.4976 10.0424 23.6321 9.91089 23.598 9.51747C23.5498 8.90325 23.5819 8.27999 23.4976 7.67079C23.2046 5.47084 21.5667 3.71149 19.3235 3.13741C17.2621 2.6095 14.8795 3.50875 13.6099 5.26108C12.7207 6.48752 12.4818 7.87051 12.54 9.33581C12.5671 10.0273 12.54 10.0293 13.2145 10.0293H18.078ZM29.1149 29.0832V28.5101C29.1149 26.1355 29.0447 23.7589 29.145 21.3894C29.1952 20.2141 28.8439 19.4684 27.8945 18.7799C27.1689 18.252 26.4894 18.0674 25.6203 18.0332C24.6508 17.9951 23.871 18.2279 23.1985 18.9104C22.9625 19.1475 22.7014 19.3582 22.4197 19.5387C22.1447 19.7163 22.0775 19.9401 22.0795 20.2503C22.0905 23.0423 22.0855 25.8344 22.0855 28.6265V29.0862L29.1149 29.0832ZM1.27432 26.1104C1.24722 26.541 1.21812 26.9224 1.20106 27.3057C1.14552 28.5101 1.71959 29.1106 2.92328 29.1073C6.10009 29.1073 9.27623 29.1073 12.4517 29.1073C13.7384 29.1073 15.026 29.1123 16.3127 29.1073C17.1035 29.1022 17.7739 28.6305 17.8492 27.9451C17.9145 27.3429 17.8623 26.7297 17.8623 26.1114L1.27432 26.1104ZM11.5274 9.09594C11.3337 4.71411 14.6386 2.17092 17.6716 2.00432C19.3366 1.91499 20.8481 2.37365 22.1457 3.42947C23.9573 4.90279 24.706 6.85785 24.6006 9.09594H25.6042C25.6735 5.97767 24.4742 3.4666 21.675 1.93707C18.9452 0.443676 16.1882 0.632358 13.652 2.44591C11.3758 4.07179 10.4324 6.38214 10.5408 9.09594H11.5274ZM11.0185 10.1548C10.8107 10.2776 10.6096 10.4116 10.4164 10.5562C10.2718 10.6726 10.0601 10.8302 10.0561 10.9747C10.0249 11.9854 10.039 12.998 10.039 14.0117H12.0462C12.0462 13.2781 11.978 12.5705 12.0633 11.883C12.1697 11.0269 11.8525 10.493 11.0908 10.1698C11.0671 10.163 11.043 10.158 11.0185 10.1548ZM26.103 14.0217C26.103 13.2851 26.0358 12.5645 26.1211 11.8619C26.2215 11.0239 25.9204 10.499 25.1747 10.1849C25.1398 10.173 25.1043 10.1629 25.0683 10.1548C24.8957 10.2692 24.705 10.3756 24.5384 10.5111C24.3718 10.6465 24.1209 10.7931 24.1159 10.9436C24.0777 11.9693 24.0958 12.997 24.0958 14.0217H26.103ZM1.02241 16.0029H4.49998C3.38997 15.4911 2.34218 14.7815 1.02241 15.1077V16.0029ZM10.5388 17.0959H8.56868V18.0232H10.5388V17.0959Z" fill="#626262"/>
<path d="M18.0719 15.0473C17.6052 15.0473 17.1385 15.0473 16.6668 15.0473C16.2533 15.0473 16.0576 14.8466 16.0596 14.4311C16.0596 13.848 16.0666 13.2638 16.0596 12.6797C16.0596 12.2462 16.2503 12.0334 16.6909 12.0364C17.6082 12.0411 18.5255 12.0411 19.4428 12.0364C19.8824 12.0364 20.0811 12.2432 20.0761 12.6787C20.0691 13.2458 20.0661 13.8128 20.0761 14.3799C20.0851 14.8385 19.8844 15.0603 19.4187 15.0503C18.9691 15.0423 18.5225 15.0473 18.0719 15.0473ZM17.0853 14.0035H19.0474V13.0722H17.0853V14.0035Z" fill="#626262"/>
<path d="M27.1123 25.5659C27.0802 26.1159 26.8885 26.5565 26.4409 26.8245C26.1789 26.9821 26.0625 27.1527 26.0966 27.4598C26.1338 27.802 25.9963 28.08 25.6189 28.0891C25.2175 28.0981 25.0659 27.8111 25.1061 27.4477C25.1412 27.1326 24.9605 27.0041 24.7618 26.8074C24.4897 26.5258 24.2746 26.1942 24.1285 25.8309C24.0031 25.5298 24.1155 25.2046 24.4768 25.1173C24.8381 25.03 25.0428 25.2327 25.099 25.591C25.1552 25.9493 25.367 26.1701 25.7143 26.0567C25.8799 26.0015 26.0996 25.6954 26.0665 25.5549C26.0274 25.4471 25.963 25.3502 25.8786 25.2725C25.7943 25.1947 25.6925 25.1384 25.5818 25.1083C24.9264 25.018 24.4417 24.7339 24.1978 24.1117C24.0679 23.7992 24.0531 23.4508 24.156 23.1285C24.2589 22.8061 24.4729 22.5307 24.7598 22.3513C25.0137 22.1857 25.1402 22.0252 25.1061 21.716C25.0679 21.3748 25.2064 21.0968 25.5798 21.0858C25.9812 21.0747 26.1348 21.3608 26.0956 21.7251C26.0615 22.0382 26.2371 22.1697 26.4379 22.3654C26.7103 22.6469 26.9257 22.9785 27.0722 23.3419C27.1996 23.643 27.0862 23.9682 26.7259 24.0575C26.3656 24.1468 26.1579 23.9431 26.1037 23.5858C26.0535 23.2556 25.8628 23.0258 25.5366 23.1101C25.4364 23.1511 25.347 23.2148 25.2754 23.2961C25.2039 23.3774 25.1521 23.4741 25.1241 23.5788C25.0749 23.8799 25.3088 24.0585 25.6179 24.0806C26.3696 24.1398 26.8594 24.5182 27.0611 25.2518C27.0847 25.3554 27.1018 25.4603 27.1123 25.5659Z" fill="#626262"/>
<path d="M26.1743 19.6782C25.9806 19.8066 25.7729 20.0565 25.5962 20.0314C25.4196 20.0064 25.1667 19.7304 25.1376 19.5407C25.1185 19.4092 25.4176 19.1101 25.5862 19.1011C25.7759 19.0921 25.9776 19.3229 26.1743 19.4493V19.6782Z" fill="#626262"/>
</svg>
