<svg width="25" height="32" viewBox="0 0 25 32" fill="none" xmlns="http://www.w3.org/2000/svg">
<path d="M11.5835 20.022C13.2221 20.022 14.8613 20.022 16.5012 20.022C17.821 20.022 18.5898 20.7908 18.5918 22.1045C18.5918 23.6434 18.5918 25.1823 18.5918 26.7212C18.5918 28.0159 17.7608 28.8589 16.4681 28.8619C13.2063 28.8679 9.94455 28.8679 6.68276 28.8619C5.364 28.8619 4.54302 28.0179 4.54102 26.6871C4.54102 25.1809 4.54102 23.6755 4.54102 22.1707C4.54102 20.7767 5.28672 20.024 6.6667 20.022H11.5835ZM5.4754 23.2336C5.4754 24.4971 5.4483 25.6985 5.48644 26.8988C5.50551 27.5191 5.95513 27.9265 6.57036 27.9295C9.89638 27.9409 13.2221 27.9409 16.5474 27.9295C17.1496 27.9295 17.6113 27.5562 17.6343 26.9621C17.6825 25.7326 17.6494 24.4992 17.6494 23.2486H7.44351C7.44351 23.5036 7.44351 23.7193 7.44351 23.9341C7.45053 24.2934 7.40136 24.6537 6.95876 24.6647C6.51616 24.6758 6.44892 24.3235 6.45695 23.9622C6.46297 23.7193 6.45695 23.4775 6.45695 23.2346L5.4754 23.2336ZM5.51153 22.1998H17.6223C17.6966 21.417 17.3634 21.0126 16.6347 21.0115C13.2565 21.0075 9.87763 21.0075 6.49809 21.0115C5.76845 21.0085 5.43826 21.406 5.51153 22.1958V22.1998Z" fill="#626262"/>
<path d="M21.2628 25.6125C21.1836 26.1856 21.2087 26.8028 20.9939 27.3187C20.7932 27.8134 20.3616 28.2279 19.9812 28.6304C19.7725 28.8512 19.4894 28.793 19.2947 28.53C19.1 28.2671 19.2145 28.0373 19.4383 27.8867C20.0625 27.4672 20.2592 26.8831 20.2211 26.1585C20.195 25.6426 20.208 25.1227 20.2211 24.6059C20.2291 24.2787 20.3285 23.9977 20.7359 24.0157C21.1073 24.0318 21.1966 24.2857 21.1956 24.6038C21.1946 24.922 21.1956 25.2713 21.1956 25.6075L21.2628 25.6125Z" fill="#626262"/>
<path d="M21.4162 22.7159C21.095 22.9829 20.9143 23.2579 20.7136 23.277C20.3573 23.3101 20.2118 22.9979 20.2289 22.6627C20.2439 22.3496 20.3925 22.0606 20.7377 22.1348C20.9435 22.181 21.105 22.4409 21.4162 22.7159Z" fill="#626262"/>
<path d="M23.1257 19.3681V18.7318C23.1257 15.8876 23.1347 13.0433 23.1177 10.201C23.1177 9.62091 23.0875 9.02175 22.943 8.46474C22.1582 5.44683 19.8528 3.57105 16.7085 3.36631C16.3903 3.34624 16.2619 3.23082 16.1324 2.95282C14.4905 -0.568911 9.66303 -1.06069 7.45505 2.12884C6.86893 2.9759 6.30791 3.34523 5.29826 3.54195C2.0445 4.17624 0.012155 6.80875 0.00312239 10.1358C-0.00390299 13.0132 0.00312239 15.8916 0.00312239 18.767V28.7822C0.193811 30.3488 1.44534 31.233 3.02806 31.1979C6.10317 31.1276 9.18229 31.1778 12.2614 31.1778C15.0053 31.1778 17.7482 31.1899 20.4912 31.1708C21.9755 31.1608 23.0183 30.1531 23.1227 28.6958C23.1227 28.6858 23.1227 28.6758 23.1227 28.6657L23.1257 19.3681ZM11.324 0.946566C13.0302 0.88133 14.8046 1.97428 15.2 3.33319H7.8826C8.11745 2.23221 9.73229 1.00377 11.324 0.946566ZM20.2483 30.2525H2.88554C1.59487 30.2525 0.935496 29.5971 0.935496 28.3135C0.935496 23.8788 0.935496 19.4441 0.935496 15.0094V14.4152C2.02744 15.3185 3.23781 15.0285 4.41305 15.1057C4.42812 15.1888 4.43885 15.2725 4.44518 15.3566C4.47328 16.4315 4.74627 16.6945 5.84122 16.6955H6.49358C7.38681 16.6955 7.72704 16.3542 7.7451 15.456C7.7451 15.3556 7.75514 15.2553 7.76217 15.1238H15.3968C15.3968 15.3125 15.3837 15.5062 15.3968 15.6969C15.4449 16.3091 15.8253 16.6744 16.4365 16.6925C16.7878 16.7035 17.139 16.6925 17.4903 16.6925C18.3243 16.6925 18.6736 16.3412 18.6856 15.5082C18.6856 15.3918 18.6856 15.2764 18.6856 15.0837C19.3039 15.0837 19.9081 15.1449 20.4922 15.0666C21.0542 14.9913 21.5962 14.7715 22.1763 14.6069C22.1763 14.6912 22.1953 14.8488 22.1953 15.0084C22.1953 19.4424 22.1953 23.8771 22.1953 28.3125C22.1963 29.5931 21.5389 30.2464 20.2483 30.2464V30.2525ZM5.46587 15.6999V13.2119H6.73645V15.6999H5.46587ZM16.3984 15.6949V13.2179H17.674V15.6919L16.3984 15.6949ZM22.1953 12.2825C22.1843 13.3213 21.4928 14.063 20.4621 14.1152C19.896 14.1433 19.328 14.1202 18.6846 14.1202C18.6846 13.806 18.6846 13.5581 18.6846 13.3102C18.6716 12.6248 18.3233 12.2725 17.6298 12.2554C17.2284 12.2464 16.8269 12.2454 16.4255 12.2554C15.7611 12.2755 15.4269 12.6127 15.3957 13.2892C15.3837 13.5381 15.3957 13.791 15.3957 14.08H7.7441C7.7441 13.8161 7.75614 13.5381 7.7441 13.2611C7.70997 12.6167 7.37275 12.2775 6.74047 12.2574C6.3059 12.2424 5.87033 12.2414 5.43575 12.2574C4.80949 12.2805 4.47127 12.6418 4.4542 13.2821C4.44818 13.5451 4.4542 13.808 4.4542 14.085C3.71654 14.085 3.03006 14.1372 2.35662 14.071C1.68319 14.0048 1.01778 13.3815 0.988678 12.6589C0.926454 11.1635 0.757853 9.64801 1.24863 8.18272C2.00135 5.92857 4.09291 4.35488 6.46749 4.33381C9.86376 4.3047 13.261 4.29768 16.6573 4.33381C19.7314 4.36693 22.1873 6.89707 22.2064 9.97319C22.2003 10.744 22.2084 11.5138 22.1953 12.2875V12.2825Z" fill="#626262"/>
</svg>
