<svg width="33" height="33" viewBox="0 0 33 33" fill="none" xmlns="http://www.w3.org/2000/svg">
<path d="M13.9633 13.8909C14.2353 14.1218 14.4762 14.3245 14.7662 14.5684C15.0348 14.4339 15.3281 14.3556 15.628 14.3383C15.9279 14.3211 16.2282 14.3652 16.5105 14.468C16.9563 14.6462 17.3261 14.9741 17.5563 15.3954C17.7865 15.8166 17.8628 16.3049 17.7721 16.7764C17.6045 17.5793 17.6045 17.5793 18.2558 18.1443C19.1632 15.4536 20.6646 13.0017 22.6487 10.9704C22.1027 10.4395 21.5648 9.9246 21.0369 9.40071C20.4006 8.76943 20.4016 8.38203 21.0308 7.74974C21.5728 7.20377 22.1158 6.65914 22.6597 6.11584C23.3713 5.40427 23.6814 5.39524 24.4833 6.10982C24.7453 5.77561 25.0453 5.46649 25.2561 5.10619C25.501 4.68768 25.4006 4.26315 25.0674 3.91188C24.8266 3.65796 24.5325 3.56061 24.2083 3.73724C23.8842 3.91388 23.6864 4.17282 23.9534 4.54817C24.1602 4.83822 24.1953 5.11422 23.8591 5.31495C23.5038 5.52771 23.301 5.26677 23.1274 5.01386C22.952 4.75756 22.8685 4.4494 22.8905 4.13959C22.9126 3.82978 23.0389 3.53656 23.2489 3.30769C23.4829 3.03129 23.8004 2.83845 24.1536 2.75825C24.5068 2.67806 24.8765 2.71485 25.2069 2.86309C26.1574 3.30368 26.4986 4.29325 26.1172 5.61904C26.7375 5.61904 27.3517 5.54979 27.9448 5.63209C29.7764 5.88701 31.7084 7.43862 31.5308 9.80116C31.4304 11.1059 30.8182 12.1426 29.6379 12.7368C28.5269 13.2948 27.4079 13.2045 26.3641 12.4969C26.2407 12.4136 26.0711 12.3273 26.0309 12.2069C25.9627 12.0001 25.9817 11.7653 25.9637 11.5425C26.1875 11.5334 26.4354 11.4591 26.6331 11.5274C27.1259 11.698 27.5805 12.0523 28.0783 12.1175C29.0107 12.24 29.7233 11.7502 30.195 10.9634C30.7329 10.0661 30.761 9.12873 30.2512 8.20338C29.363 6.59156 27.0105 5.98537 25.3394 6.97695C25.6405 7.28908 25.9416 7.58916 26.2286 7.89527C26.6592 8.34791 26.6702 8.8166 26.2397 9.25719C25.5863 9.92661 24.9209 10.586 24.2545 11.2434C24.1541 11.3437 24.0166 11.4903 23.8922 11.4953C23.2027 11.5204 22.9086 12.0744 22.5403 12.4989C21.0472 14.2161 19.908 16.2114 19.1882 18.3701C18.2757 21.1227 16.7286 23.6222 14.6719 25.6665C12.8232 27.5061 10.9855 29.3568 9.13787 31.1985C7.89939 32.4319 6.29359 32.451 5.0501 31.2276C3.63231 29.8325 2.22723 28.4248 0.834863 27.0043C-0.205898 25.9375 -0.300234 24.3166 0.702389 23.2909C2.9475 20.9966 5.20866 18.7164 7.5421 16.5134C9.22217 14.9287 11.2415 13.8317 13.4284 13.087C15.5484 12.3638 17.5281 11.2807 19.2805 9.88546C19.5475 9.6737 19.8285 9.46896 20.0995 9.81119C20.3705 10.1534 20.1306 10.4184 19.8476 10.6422C18.0721 12.0342 16.1462 13.1442 13.9633 13.8909ZM15.8461 18.3902C14.432 18.3902 13.4374 17.1778 13.8188 15.8811C13.9794 15.3402 13.869 15.0491 13.4856 14.748C13.3921 14.6773 13.309 14.5939 13.2387 14.5001C13.0651 14.2603 12.8744 14.2884 12.6305 14.3998C11.0036 15.1194 9.45401 15.9875 8.16636 17.217C5.89616 19.3858 3.68015 21.6118 1.46414 23.8409C0.725469 24.5816 0.777655 25.6253 1.5364 26.3921C2.92341 27.7972 4.31712 29.1909 5.71751 30.5732C6.56959 31.4193 7.59529 31.4153 8.4564 30.5582C10.3864 28.6362 12.3204 26.7193 14.2293 24.7773C15.7179 23.2609 16.9072 21.4774 17.7349 19.5203C17.7901 19.3928 17.8614 19.1831 17.8032 19.1128C17.5382 18.7937 17.2582 18.4675 16.92 18.2356C16.7925 18.1483 16.4965 18.3159 16.2757 18.3551C16.1111 18.3701 15.9435 18.3802 15.8461 18.3902ZM23.6393 6.60661L21.6691 8.56369C22.3014 9.19898 22.9548 9.85636 23.5911 10.4977L25.5452 8.5677C25.4598 8.46734 25.3786 8.36698 25.2872 8.27464C24.7272 7.70559 24.1652 7.13854 23.6393 6.60661ZM15.7488 17.4669C15.9671 17.471 16.1817 17.4101 16.3651 17.2917C16.5486 17.1733 16.6926 17.0029 16.7787 16.8022C16.8649 16.6016 16.8892 16.3798 16.8487 16.1653C16.8082 15.9507 16.7046 15.7532 16.5512 15.5978C16.3978 15.4424 16.2016 15.3362 15.9876 15.2929C15.7736 15.2496 15.5515 15.2711 15.3498 15.3546C15.148 15.4382 14.9758 15.58 14.855 15.7619C14.7343 15.9438 14.6705 16.1576 14.6719 16.3759C14.6752 16.6618 14.7892 16.9353 14.9901 17.1388C15.191 17.3422 15.4629 17.4599 15.7488 17.4669Z" fill="#626262"/>
<path d="M32.1352 2.08923C32.1272 2.65327 31.7689 3.06576 31.2149 3.26046C30.925 3.35242 30.6633 3.51645 30.4541 3.73718C29.3501 5.05093 28.9256 4.74081 27.8296 3.68299C27.4894 3.3538 27.4974 2.83593 27.7965 2.44451C27.9581 2.23275 28.1809 2.06313 28.3224 1.84234C28.4949 1.5924 28.6222 1.31421 28.6988 1.02036C28.7434 0.773397 28.862 0.545821 29.0389 0.367829C29.2158 0.189837 29.4427 0.0698416 29.6894 0.0237634C30.7532 -0.182984 32.1502 0.997282 32.1352 2.08923ZM29.2357 3.6599C29.4936 3.36885 29.7084 3.11594 29.9383 2.87406C30.2052 2.58502 30.433 2.26386 30.9248 2.31404C31.2259 2.34515 31.25 2.08722 31.1436 1.85338C31.0509 1.62992 30.9041 1.43299 30.7165 1.28024C30.5289 1.12749 30.3063 1.02371 30.0687 0.978213C29.9483 0.955129 29.6412 1.20503 29.6572 1.2793C29.7656 1.73997 29.4806 1.99288 29.2227 2.2739C28.9898 2.52781 28.764 2.78876 28.5201 3.06576L29.2357 3.6599Z" fill="#626262"/>
<path d="M26.5147 1.5313C26.4143 1.63166 26.2918 1.83239 26.1132 1.90665C25.8442 2.00702 25.6525 1.84844 25.5411 1.57245C25.4297 1.29645 25.2471 1.07063 25.1557 0.79865C25.0915 0.605953 25.0413 0.302858 25.1427 0.188445C25.2441 0.0740311 25.5943 0.0328831 25.7449 0.120199C26.2136 0.396196 26.4143 0.87894 26.5147 1.5313Z" fill="#626262"/>
<path d="M30.974 6.12567C31.5531 6.11463 32.1874 6.6044 32.1112 6.92857C32.0754 7.02988 32.0187 7.1225 31.9447 7.20033C31.8707 7.27817 31.781 7.33947 31.6816 7.38021C31.4508 7.46551 30.6117 6.78807 30.671 6.58734C30.7302 6.38662 30.9038 6.22603 30.974 6.12567Z" fill="#626262"/>
<path d="M23.6551 0.854004C23.9101 0.964403 24.2091 1.02663 24.4048 1.20226C24.5363 1.31969 24.6216 1.6559 24.5454 1.79239C24.4691 1.92889 24.1158 2.04029 23.9713 1.97405C23.6511 1.82551 23.068 1.92387 23.1272 1.32972C23.1433 1.17617 23.4223 1.04871 23.5819 0.911211C23.5919 0.903182 23.615 0.911211 23.6311 0.911211L23.6551 0.854004Z" fill="#626262"/>
<path d="M7.76489 29.3204C7.23538 29.2638 6.74039 29.0304 6.35981 28.658C5.39532 27.7085 4.43384 26.7561 3.48842 25.7866C2.71964 24.9977 2.7066 23.9349 3.47537 23.139C4.54424 22.035 5.64522 20.9592 6.73014 19.8702C6.97101 19.6283 7.244 19.5049 7.51398 19.7769C7.78396 20.0489 7.62337 20.3229 7.39153 20.5547C6.36181 21.5824 5.33309 22.6111 4.30538 23.6408C3.7032 24.243 3.70321 24.6655 4.29836 25.2627C5.1588 26.1285 6.02159 26.9913 6.88671 27.8511C7.46581 28.4251 7.90338 28.4281 8.47445 27.8601C9.68415 26.6557 10.8885 25.4494 12.0875 24.241C12.6666 23.6589 12.6606 23.2083 12.0734 22.6161C11.3087 21.8454 10.5392 21.0759 9.76511 20.3078C9.43592 19.9796 9.13383 19.6304 8.61596 19.5591C8.47947 19.54 8.25767 19.2279 8.28978 19.1065C8.33494 18.9328 8.61195 18.6649 8.73038 18.693C9.1529 18.7933 9.63865 18.9047 9.94275 19.1837C10.9885 20.1442 11.9871 21.1579 12.9657 22.1886C13.6682 22.9273 13.6682 23.9399 12.9657 24.6766C11.6449 26.0502 10.296 27.3961 8.91906 28.7142C8.62299 29.0082 8.1553 29.1237 7.76489 29.3204Z" fill="#626262"/>
</svg>
