<svg width="17" height="39" viewBox="0 0 17 39" fill="none" xmlns="http://www.w3.org/2000/svg">
<path d="M3.80429 13.7265C3.61762 13.6513 3.41389 13.6322 3.33059 13.5258C3.12986 13.2538 2.84181 12.9407 2.84181 12.6436C2.84181 12.3465 3.08167 11.9581 3.33558 11.7755C3.86249 11.3961 3.93777 11.0167 3.42392 10.5621C2.4785 9.72306 1.81811 8.71241 1.51702 7.47794C0.950979 5.13448 1.85424 2.82714 3.92573 1.30965C6.84327 -0.828072 11.2 -0.289124 13.4742 2.49092C15.4463 4.89963 15.1563 8.35411 12.7817 10.4888C12.4947 10.7468 12.3451 11.0077 12.4194 11.376C12.4415 11.4824 12.5198 11.6289 12.6041 11.6621C13.1059 11.8548 13.3618 12.208 13.3207 12.744C13.2765 13.3201 12.8771 13.575 12.3371 13.7095C12.3371 14.1521 12.315 14.5856 12.3472 15.0142C12.3772 15.2047 12.4529 15.3852 12.5679 15.5401C13.5515 17.0305 14.5611 18.5028 15.5256 20.0062C15.9692 20.6987 16.1429 21.4745 16.1389 22.3226C16.1138 27.2745 16.1268 32.2274 16.1258 37.1763C16.1258 38.4669 15.6551 38.9326 14.3554 38.9326H1.66255C0.521422 38.9326 0.00555568 38.4208 0.00455205 37.2776C0.00455205 32.1591 -0.0155215 27.0467 0.0286381 21.9322C0.0549645 21.2673 0.247513 20.6196 0.58867 20.0484C1.4006 18.6654 2.2848 17.3195 3.2252 16.0198C3.62665 15.4618 3.90664 14.9419 3.80829 14.2524C3.79525 14.0774 3.79392 13.9017 3.80429 13.7265ZM11.5513 13.6954H4.57306V15.0603H5.30069C8.13895 15.0603 8.28346 15.2099 8.10181 15.3855C7.27883 16.1794 6.21499 15.5361 5.27359 15.7308C5.16661 15.7523 5.0564 15.7523 4.94942 15.7308C4.4727 15.6364 4.15856 15.8642 3.91166 16.2326C3.04252 17.5373 2.13725 18.825 1.32431 20.1668C1.02322 20.6686 0.772336 21.3049 0.767318 21.881C0.725166 27.0135 0.742229 32.1461 0.743232 37.2786C0.743232 38.0314 0.952983 38.2421 1.71474 38.2431C5.94603 38.2431 10.177 38.2431 14.4076 38.2431C15.1985 38.2431 15.3942 38.0424 15.3942 37.2395C15.3942 32.121 15.4002 27.0105 15.3831 21.896C15.3891 21.5007 15.2952 21.1103 15.1101 20.7609C14.3223 19.4251 13.5625 18.0602 12.6282 16.8297C11.9327 15.9124 11.3977 15.0403 11.5985 13.858C11.592 13.8015 11.5761 13.7465 11.5513 13.6954ZM4.43756 11.5737H11.752C11.466 10.6926 11.9989 10.2429 12.5338 9.71904C14.4217 7.87237 14.5832 5.08831 12.9804 3.03388C10.7183 0.133403 6.10459 -0.0894018 3.53932 2.57723C1.42568 4.77618 1.59631 8.10922 3.94881 10.0502C4.30811 10.3463 4.50882 10.6323 4.44058 11.094C4.4288 11.2537 4.42779 11.4139 4.43756 11.5737ZM8.1219 12.3335C6.78507 12.3335 5.44723 12.3204 4.10739 12.3475C3.90667 12.3475 3.71597 12.5392 3.52026 12.6416C3.71496 12.749 3.90867 12.9477 4.10438 12.9497C6.74258 12.9705 9.38043 12.9705 12.018 12.9497C12.2187 12.9497 12.4084 12.749 12.6031 12.6486C12.4084 12.5483 12.2167 12.3566 12.02 12.3475C10.7203 12.3204 9.4226 12.3335 8.1219 12.3335Z" fill="#626262"/>
<path d="M3.8955 28.4992C3.32042 28.4942 2.77034 28.2634 2.36386 27.8566C1.95739 27.4497 1.72711 26.8994 1.72266 26.3243C1.72789 25.7584 1.95497 25.2171 2.35509 24.8168C2.75521 24.4164 3.29641 24.1891 3.86237 24.1836C4.14767 24.1791 4.43097 24.2321 4.69541 24.3392C4.95985 24.4464 5.20003 24.6057 5.4017 24.8075C5.60337 25.0094 5.76239 25.2497 5.86933 25.5143C5.97627 25.7788 6.02893 26.0621 6.02419 26.3474C6.02318 26.9138 5.79932 27.4571 5.40099 27.8597C5.00265 28.2624 4.46185 28.4921 3.8955 28.4992ZM2.4593 26.3063C2.44879 26.6833 2.58849 27.0491 2.84767 27.3231C3.10684 27.5972 3.46426 27.757 3.8413 27.7676C4.02799 27.7728 4.2139 27.7412 4.38837 27.6745C4.56284 27.6079 4.72246 27.5075 4.85816 27.3792C5.1322 27.12 5.29207 26.7626 5.30258 26.3856C5.31064 26.1961 5.28105 26.007 5.21553 25.829C5.15001 25.6511 5.04987 25.4879 4.92088 25.349C4.7919 25.21 4.63664 25.098 4.46408 25.0194C4.29152 24.9408 4.10508 24.8972 3.91557 24.8912C3.72619 24.8847 3.53745 24.9165 3.3607 24.9849C3.18396 25.0532 3.02288 25.1566 2.88712 25.2888C2.75136 25.421 2.64374 25.5792 2.57074 25.7541C2.49774 25.929 2.46085 26.1168 2.46232 26.3063H2.4593Z" fill="#626262"/>
<path d="M9.55414 22.7656C9.80231 22.7621 10.0487 22.8078 10.2791 22.9001C10.5095 22.9923 10.7195 23.1292 10.8967 23.3029C11.074 23.4766 11.2151 23.6837 11.312 23.9122C11.4088 24.1407 11.4595 24.3862 11.461 24.6343C11.4566 25.1367 11.2581 25.6179 10.907 25.9773C10.5559 26.3366 10.0794 26.5463 9.57725 26.5623C8.55856 26.5774 7.68539 25.7042 7.67937 24.6624C7.67271 24.4134 7.71648 24.1656 7.80806 23.9339C7.89964 23.7022 8.03712 23.4914 8.21225 23.3142C8.38738 23.137 8.59654 22.9971 8.82715 22.9028C9.05775 22.8085 9.30503 22.7618 9.55414 22.7656ZM9.57323 25.8317C9.72674 25.831 9.87861 25.7999 10.02 25.7402C10.1615 25.6805 10.2896 25.5933 10.3972 25.4838C10.5047 25.3742 10.5894 25.2444 10.6464 25.1019C10.7034 24.9593 10.7317 24.8069 10.7294 24.6534C10.7294 23.99 10.1764 23.423 9.53809 23.442C9.2283 23.4584 8.93718 23.5952 8.72681 23.8232C8.51644 24.0512 8.40348 24.3523 8.41202 24.6624C8.42607 25.3389 8.91384 25.8357 9.57323 25.8317Z" fill="#626262"/>
<path d="M6.60589 31.3288C6.6153 30.9749 6.72934 30.6317 6.93363 30.3426C7.13793 30.0535 7.42331 29.8314 7.75374 29.7043C8.08417 29.5773 8.44485 29.551 8.79022 29.6287C9.13559 29.7065 9.45018 29.8848 9.69427 30.1412C9.93836 30.3976 10.101 30.7206 10.1617 31.0694C10.2224 31.4182 10.1784 31.7771 10.0352 32.1009C9.89204 32.4247 9.65616 32.6988 9.35733 32.8886C9.05851 33.0784 8.71013 33.1755 8.35621 33.1674C7.88076 33.1543 7.42984 32.9536 7.10189 32.6091C6.77395 32.2646 6.59563 31.8043 6.60589 31.3288ZM9.45319 31.379C9.45969 31.2351 9.43699 31.0914 9.38649 30.9565C9.336 30.8216 9.25874 30.6983 9.15935 30.594C9.05997 30.4897 8.94051 30.4067 8.80818 30.3498C8.67585 30.2929 8.53338 30.2633 8.38933 30.263C8.10815 30.2706 7.84027 30.3844 7.6397 30.5817C7.43913 30.7789 7.32076 31.0448 7.30843 31.3258C7.3063 31.4695 7.33268 31.6122 7.38603 31.7457C7.43937 31.8791 7.51862 32.0007 7.61922 32.1033C7.71982 32.206 7.83975 32.2877 7.9721 32.3437C8.10446 32.3998 8.24662 32.429 8.39034 32.4298C8.52992 32.4337 8.66886 32.4094 8.79875 32.3581C8.92864 32.3068 9.04677 32.2297 9.14602 32.1315C9.24528 32.0333 9.32358 31.916 9.3762 31.7866C9.42882 31.6573 9.45468 31.5186 9.45218 31.379H9.45319Z" fill="#626262"/>
<path d="M13.4213 31.3091V27.141C13.4213 27.0146 13.3822 26.866 13.4344 26.7667C13.531 26.6201 13.6445 26.4854 13.7726 26.3652C13.883 26.5007 14.0857 26.6332 14.0907 26.7727C14.1209 27.6569 14.1078 28.5421 14.1078 29.4263V35.6046C14.1078 35.7491 14.1469 35.9137 14.0907 36.0322C14.0245 36.1687 13.873 36.265 13.7595 36.3794C13.6481 36.261 13.5086 36.1576 13.4364 36.0181C13.3852 35.9178 13.4223 35.7712 13.4223 35.6448C13.4216 34.2009 13.4213 32.7557 13.4213 31.3091Z" fill="#626262"/>
<path d="M4.98732 33.4568C5.44393 33.4644 5.87938 33.6507 6.20023 33.9757C6.52107 34.3007 6.70176 34.7385 6.70353 35.1951C6.70353 36.1476 5.86251 36.9776 4.93315 36.9454C4.47725 36.9234 4.04748 36.7261 3.73365 36.3947C3.41981 36.0633 3.2462 35.6234 3.24906 35.167C3.25303 34.7098 3.43834 34.2729 3.76427 33.9522C4.09021 33.6315 4.5301 33.4534 4.98732 33.4568ZM5.96686 35.2001C5.96266 35.0034 5.90024 34.8123 5.78748 34.651C5.67472 34.4897 5.5167 34.3654 5.33335 34.2939C5.15 34.2223 4.94957 34.2068 4.75737 34.2491C4.56516 34.2914 4.3898 34.3898 4.25347 34.5317C4.11714 34.6737 4.02592 34.8528 3.99136 35.0466C3.95681 35.2403 3.98046 35.44 4.05931 35.6203C4.13816 35.8006 4.26868 35.9535 4.4344 36.0597C4.60011 36.1659 4.79356 36.2205 4.99034 36.2168C5.25321 36.2072 5.50205 36.0957 5.68427 35.906C5.8665 35.7163 5.96782 35.4632 5.96686 35.2001Z" fill="#626262"/>
<path d="M6.10287 21.9221C5.90416 21.9252 5.70683 21.8889 5.52223 21.8153C5.33763 21.7417 5.16943 21.6322 5.02733 21.4933C4.88523 21.3544 4.77203 21.1887 4.69429 21.0058C4.61654 20.8229 4.57578 20.6264 4.57435 20.4277C4.57178 20.23 4.60817 20.0338 4.68145 19.8501C4.75473 19.6665 4.86345 19.4991 5.00143 19.3575C5.1394 19.2159 5.30393 19.1028 5.4856 19.0248C5.66726 18.9468 5.86251 18.9053 6.06021 18.9027C6.25791 18.9001 6.45418 18.9365 6.63781 19.0098C6.82144 19.0831 6.98885 19.1918 7.13046 19.3298C7.27207 19.4678 7.3851 19.6323 7.46313 19.814C7.54116 19.9956 7.58266 20.1909 7.58523 20.3886C7.59002 20.587 7.55533 20.7844 7.48317 20.9692C7.41101 21.1541 7.30281 21.3228 7.16488 21.4655C7.02695 21.6082 6.86205 21.722 6.67973 21.8004C6.49741 21.8788 6.30132 21.9202 6.10287 21.9221ZM6.0828 19.6068C5.9225 19.6012 5.76418 19.6437 5.62828 19.7289C5.49237 19.8141 5.38511 19.938 5.3203 20.0848C5.2555 20.2315 5.23613 20.3943 5.26468 20.5521C5.29324 20.7099 5.3684 20.8556 5.4805 20.9703C5.59261 21.085 5.7365 21.1636 5.89364 21.1957C6.05078 21.2279 6.21398 21.2123 6.36215 21.1509C6.51033 21.0895 6.63671 20.9851 6.72501 20.8512C6.81332 20.7173 6.8595 20.56 6.8576 20.3996C6.86098 20.2963 6.84345 20.1933 6.80607 20.0969C6.76868 20.0005 6.71221 19.9127 6.64004 19.8386C6.56787 19.7646 6.4815 19.7059 6.38609 19.666C6.29068 19.6262 6.1882 19.606 6.08481 19.6068H6.0828Z" fill="#626262"/>
<path d="M8.99076 19.3713C9.00872 19.0073 9.16538 18.6641 9.42857 18.4121C9.69177 18.1601 10.0415 18.0185 10.4059 18.0164C11.1596 18.0294 11.818 18.7099 11.7999 19.4576C11.7951 19.6431 11.7536 19.8259 11.6777 19.9954C11.6019 20.1648 11.4932 20.3176 11.358 20.4448C11.2228 20.572 11.0637 20.6711 10.8899 20.7364C10.7162 20.8018 10.5312 20.8321 10.3457 20.8255C10.1606 20.821 9.97822 20.7796 9.80935 20.7037C9.64047 20.6278 9.48846 20.5189 9.36225 20.3834C9.23603 20.248 9.13816 20.0886 9.07436 19.9148C9.01057 19.741 8.98215 19.5562 8.99076 19.3713ZM10.3416 20.1009C10.4332 20.1087 10.5254 20.0973 10.6124 20.0675C10.6993 20.0376 10.779 19.9899 10.8465 19.9275C10.9139 19.8651 10.9676 19.7892 11.0041 19.7048C11.0406 19.6205 11.059 19.5294 11.0582 19.4375C11.0462 19.014 10.8133 18.757 10.3898 18.752C9.98836 18.752 9.75652 18.9899 9.73143 19.3873C9.70433 19.8219 9.95023 20.0447 10.3416 20.1009Z" fill="#626262"/>
<path d="M10.3671 37.4417C10.1908 37.4422 10.0163 37.4073 9.85373 37.3391C9.69118 37.271 9.54397 37.1709 9.42074 37.0449C9.29752 36.9189 9.20079 36.7694 9.13632 36.6054C9.07184 36.4413 9.04091 36.266 9.04534 36.0898C9.05483 35.7452 9.19841 35.4178 9.44554 35.1774C9.69267 34.937 10.0238 34.8025 10.3686 34.8025C10.7134 34.8025 11.0446 34.937 11.2917 35.1774C11.5388 35.4178 11.6824 35.7452 11.6919 36.0898C11.6945 36.2658 11.6623 36.4406 11.597 36.604C11.5317 36.7675 11.4347 36.9164 11.3115 37.0421C11.1883 37.1678 11.0414 37.2678 10.8793 37.3364C10.7172 37.405 10.5431 37.4408 10.3671 37.4417ZM10.9743 35.9232C10.8177 35.8128 10.5929 35.5298 10.345 35.5087C10.0008 35.4786 9.7559 35.7626 9.77096 36.145C9.78601 36.5033 10.0118 36.7161 10.3621 36.7161C10.7394 36.7151 10.9502 36.4923 10.9743 35.9252V35.9232Z" fill="#626262"/>
<path d="M3.03778 20.7195C3.18671 20.719 3.33429 20.7479 3.47207 20.8045C3.60984 20.861 3.73509 20.9442 3.84073 21.0492C3.94637 21.1542 4.0303 21.2789 4.08772 21.4164C4.14514 21.5538 4.17493 21.7012 4.17539 21.8501C4.17585 21.999 4.14698 22.1466 4.09041 22.2844C4.03385 22.4221 3.95069 22.5474 3.84571 22.653C3.74072 22.7587 3.61595 22.8426 3.47853 22.9C3.34112 22.9574 3.19375 22.9872 3.04481 22.9877C2.39848 22.9927 1.92776 22.516 1.92676 21.8566C1.92576 21.1972 2.39044 20.7165 3.03778 20.7195ZM3.04682 21.2615C2.83807 21.5445 2.62329 21.7101 2.64035 21.8476C2.65741 21.9851 2.88723 22.2179 3.03276 22.2239C3.17828 22.23 3.39909 22.0041 3.42117 21.8556C3.44325 21.7071 3.23952 21.5485 3.04682 21.2615Z" fill="#626262"/>
<path d="M2.92896 31.9109C2.63856 31.9109 2.36004 31.7955 2.1547 31.5902C1.94935 31.3848 1.83398 31.1063 1.83398 30.8159C1.83398 30.5255 1.94935 30.247 2.1547 30.0417C2.36004 29.8363 2.63856 29.7209 2.92896 29.7209C3.21936 29.7209 3.49785 29.8363 3.70319 30.0417C3.90853 30.247 4.02391 30.5255 4.02391 30.8159C4.02391 31.1063 3.90853 31.3848 3.70319 31.5902C3.49785 31.7955 3.21936 31.9109 2.92896 31.9109ZM2.943 30.283C2.76234 30.5329 2.57165 30.6844 2.5867 30.8059C2.60377 30.9464 2.80651 31.1682 2.92494 31.1662C3.04337 31.1642 3.27118 30.9654 3.29427 30.8259C3.31434 30.7065 3.12265 30.5429 2.943 30.281V30.283Z" fill="#626262"/>
<path d="M12.3029 28.2465C12.2969 28.5018 12.1919 28.7447 12.01 28.924C11.8281 29.1032 11.5837 29.2047 11.3284 29.207C11.1314 29.2095 10.9381 29.1531 10.7735 29.0449C10.6088 28.9367 10.4803 28.7818 10.4044 28.6C10.3285 28.4182 10.3087 28.2178 10.3475 28.0247C10.3864 27.8315 10.4821 27.6544 10.6225 27.5161C10.7628 27.3778 10.9413 27.2847 11.135 27.2486C11.3286 27.2126 11.5287 27.2353 11.7094 27.3138C11.89 27.3923 12.0431 27.5231 12.1489 27.6893C12.2546 27.8555 12.3083 28.0496 12.3029 28.2465Z" fill="#626262"/>
<path d="M13.4244 23.193C13.4244 22.7976 13.3903 22.3981 13.4405 22.0097C13.4606 21.8531 13.6623 21.7207 13.7817 21.5771C13.8901 21.7126 14.0878 21.8451 14.0928 21.9846C14.1219 22.8277 14.124 23.6737 14.0928 24.5168C14.0868 24.6663 13.871 24.8068 13.7526 24.9513C13.6432 24.7968 13.4575 24.6503 13.4405 24.4857C13.3943 24.0591 13.4244 23.6245 13.4244 23.193Z" fill="#626262"/>
<path d="M12.5794 6.28885C12.5794 5.16178 12.2181 4.34182 11.5627 3.64129C11.3781 3.44056 11.1201 3.23984 11.4172 2.96484C11.7143 2.68985 11.904 2.97287 12.0886 3.15954C13.8871 4.96607 13.6272 8.1275 11.5467 9.58276C11.3991 9.68312 11.0569 9.72327 10.9445 9.62792C10.6675 9.38906 10.9164 9.18833 11.1161 9.02574C12.0314 8.27403 12.5543 7.32861 12.5794 6.28885Z" fill="#626262"/>
<path d="M8.47866 1.45288C8.94635 1.56729 9.42309 1.65361 9.87372 1.81318C10.0162 1.86336 10.0875 2.11427 10.1909 2.27385C10.0122 2.33708 9.82653 2.46554 9.65491 2.44948C9.19324 2.40733 8.73961 2.29593 8.27995 2.22668C8.01198 2.18553 7.66574 2.19155 7.73699 1.8182C7.76309 1.68271 8.10331 1.60242 8.30504 1.50607C8.3577 1.4954 8.41197 1.4954 8.46462 1.50607L8.47866 1.45288Z" fill="#626262"/>
</svg>
