<svg width="25" height="38" viewBox="0 0 25 38" fill="none" xmlns="http://www.w3.org/2000/svg">
<g clip-path="url(#clip0_151_560)">
<path d="M22.9171 14.25C23.3006 14.25 23.6115 13.9462 23.6115 13.5714C23.6115 13.1966 23.3006 12.8928 22.9171 12.8928C22.5336 12.8928 22.2227 13.1966 22.2227 13.5714C22.2227 13.9462 22.5336 14.25 22.9171 14.25Z" fill="#626262"/>
<path d="M21.5275 12.8928C21.911 12.8928 22.2219 12.589 22.2219 12.2142C22.2219 11.8395 21.911 11.5356 21.5275 11.5356C21.1439 11.5356 20.833 11.8395 20.833 12.2142C20.833 12.589 21.1439 12.8928 21.5275 12.8928Z" fill="#626262"/>
<path d="M21.5275 15.6071C21.911 15.6071 22.2219 15.3033 22.2219 14.9286C22.2219 14.5538 21.911 14.25 21.5275 14.25C21.1439 14.25 20.833 14.5538 20.833 14.9286C20.833 15.3033 21.1439 15.6071 21.5275 15.6071Z" fill="#626262"/>
<path d="M22.9171 16.9643C23.3006 16.9643 23.6115 16.6605 23.6115 16.2857C23.6115 15.911 23.3006 15.6072 22.9171 15.6072C22.5336 15.6072 22.2227 15.911 22.2227 16.2857C22.2227 16.6605 22.5336 16.9643 22.9171 16.9643Z" fill="#626262"/>
<path d="M22.9171 19.6787C23.3006 19.6787 23.6115 19.3749 23.6115 19.0001C23.6115 18.6253 23.3006 18.3215 22.9171 18.3215C22.5336 18.3215 22.2227 18.6253 22.2227 19.0001C22.2227 19.3749 22.5336 19.6787 22.9171 19.6787Z" fill="#626262"/>
<path d="M21.5275 18.3215C21.911 18.3215 22.2219 18.0177 22.2219 17.6429C22.2219 17.2682 21.911 16.9644 21.5275 16.9644C21.1439 16.9644 20.833 17.2682 20.833 17.6429C20.833 18.0177 21.1439 18.3215 21.5275 18.3215Z" fill="#626262"/>
<path d="M21.5275 21.0356C21.911 21.0356 22.2219 20.7318 22.2219 20.357C22.2219 19.9823 21.911 19.6785 21.5275 19.6785C21.1439 19.6785 20.833 19.9823 20.833 20.357C20.833 20.7318 21.1439 21.0356 21.5275 21.0356Z" fill="#626262"/>
<path d="M22.9171 22.3928C23.3006 22.3928 23.6115 22.089 23.6115 21.7142C23.6115 21.3395 23.3006 21.0356 22.9171 21.0356C22.5336 21.0356 22.2227 21.3395 22.2227 21.7142C22.2227 22.089 22.5336 22.3928 22.9171 22.3928Z" fill="#626262"/>
<path d="M22.9171 25.1071C23.3006 25.1071 23.6115 24.8033 23.6115 24.4286C23.6115 24.0538 23.3006 23.75 22.9171 23.75C22.5336 23.75 22.2227 24.0538 22.2227 24.4286C22.2227 24.8033 22.5336 25.1071 22.9171 25.1071Z" fill="#626262"/>
<path d="M21.5275 23.75C21.911 23.75 22.2219 23.4462 22.2219 23.0714C22.2219 22.6966 21.911 22.3928 21.5275 22.3928C21.1439 22.3928 20.833 22.6966 20.833 23.0714C20.833 23.4462 21.1439 23.75 21.5275 23.75Z" fill="#626262"/>
<path d="M21.5275 26.4643C21.911 26.4643 22.2219 26.1605 22.2219 25.7857C22.2219 25.411 21.911 25.1072 21.5275 25.1072C21.1439 25.1072 20.833 25.411 20.833 25.7857C20.833 26.1605 21.1439 26.4643 21.5275 26.4643Z" fill="#626262"/>
<path d="M22.9171 27.8215C23.3006 27.8215 23.6115 27.5177 23.6115 27.1429C23.6115 26.7682 23.3006 26.4644 22.9171 26.4644C22.5336 26.4644 22.2227 26.7682 22.2227 27.1429C22.2227 27.5177 22.5336 27.8215 22.9171 27.8215Z" fill="#626262"/>
<path d="M22.9171 30.5356C23.3006 30.5356 23.6115 30.2318 23.6115 29.857C23.6115 29.4823 23.3006 29.1785 22.9171 29.1785C22.5336 29.1785 22.2227 29.4823 22.2227 29.857C22.2227 30.2318 22.5336 30.5356 22.9171 30.5356Z" fill="#626262"/>
<path d="M21.5275 29.1787C21.911 29.1787 22.2219 28.8749 22.2219 28.5001C22.2219 28.1253 21.911 27.8215 21.5275 27.8215C21.1439 27.8215 20.833 28.1253 20.833 28.5001C20.833 28.8749 21.1439 29.1787 21.5275 29.1787Z" fill="#626262"/>
<path d="M21.5275 31.8928C21.911 31.8928 22.2219 31.589 22.2219 31.2142C22.2219 30.8395 21.911 30.5356 21.5275 30.5356C21.1439 30.5356 20.833 30.8395 20.833 31.2142C20.833 31.589 21.1439 31.8928 21.5275 31.8928Z" fill="#626262"/>
<path d="M22.9171 33.25C23.3006 33.25 23.6115 32.9462 23.6115 32.5714C23.6115 32.1966 23.3006 31.8928 22.9171 31.8928C22.5336 31.8928 22.2227 32.1966 22.2227 32.5714C22.2227 32.9462 22.5336 33.25 22.9171 33.25Z" fill="#626262"/>
<path d="M22.9171 35.9643C23.3006 35.9643 23.6115 35.6605 23.6115 35.2857C23.6115 34.911 23.3006 34.6072 22.9171 34.6072C22.5336 34.6072 22.2227 34.911 22.2227 35.2857C22.2227 35.6605 22.5336 35.9643 22.9171 35.9643Z" fill="#626262"/>
<path d="M21.5275 34.6071C21.911 34.6071 22.2219 34.3033 22.2219 33.9286C22.2219 33.5538 21.911 33.25 21.5275 33.25C21.1439 33.25 20.833 33.5538 20.833 33.9286C20.833 34.3033 21.1439 34.6071 21.5275 34.6071Z" fill="#626262"/>
<path d="M22.8194 9.5H18.0556V7.46429H15.9722V4.07143H17.3611V0H7.63889V3.11464L3.67361 6.9825C3.61039 7.04703 3.56083 7.12313 3.52778 7.20643C3.49219 7.28801 3.47332 7.37561 3.47222 7.46429V9.5H2.18056C1.6028 9.50179 1.04923 9.72685 0.640693 10.126C0.232156 10.5252 0.00183125 11.0662 0 11.6307V35.8693C0.00183125 36.4338 0.232156 36.9748 0.640693 37.374C1.04923 37.7732 1.6028 37.9982 2.18056 38H22.8194C23.3972 37.9982 23.9508 37.7732 24.3593 37.374C24.7678 36.9748 24.9982 36.4338 25 35.8693V11.6307C24.9982 11.0662 24.7678 10.5252 24.3593 10.126C23.9508 9.72685 23.3972 9.50179 22.8194 9.5ZM16.6667 8.82143V9.5H8.33333V8.82143H16.6667ZM14.5833 7.46429H10.4167V4.07143H14.5833V7.46429ZM9.02778 1.35714H15.9722V2.71429H9.02778V1.35714ZM4.86111 7.7425L8.61806 4.07143H9.02778V7.46429H6.94444V9.5H4.86111V7.7425ZM23.6111 13.5714V35.8693C23.6111 36.0744 23.5277 36.2712 23.3792 36.4163C23.2308 36.5614 23.0294 36.6429 22.8194 36.6429H22.2222C22.2222 36.4629 22.1491 36.2903 22.0188 36.163C21.8886 36.0358 21.712 35.9643 21.5278 35.9643C21.3436 35.9643 21.167 36.0358 21.0367 36.163C20.9065 36.2903 20.8333 36.4629 20.8333 36.6429H2.18056C1.97059 36.6429 1.76923 36.5614 1.62076 36.4163C1.4723 36.2712 1.38889 36.0744 1.38889 35.8693V11.6307C1.38889 11.4255 1.4723 11.2288 1.62076 11.0837C1.76923 10.9386 1.97059 10.8571 2.18056 10.8571H22.2222C22.2222 11.0371 22.2954 11.2097 22.4256 11.337C22.5559 11.4642 22.7325 11.5357 22.9167 11.5357C23.0287 11.5329 23.1383 11.5037 23.2363 11.4505C23.3342 11.3974 23.4176 11.3218 23.4792 11.2304C23.5619 11.3485 23.6077 11.4876 23.6111 11.6307V13.5714Z" fill="#626262"/>
</g>
<defs>
<clipPath id="clip0_151_560">
<rect width="25" height="38" fill="white"/>
</clipPath>
</defs>
</svg>
