<svg width="18" height="34" viewBox="0 0 18 34" fill="none" xmlns="http://www.w3.org/2000/svg">
<g clip-path="url(#clip0_151_544)">
<path d="M0.00142628 21.8562C0.00142628 18.9536 0.00142628 16.0511 0.00142628 13.1486C0.00142628 9.75047 1.54386 7.17323 4.64336 5.44657C4.93116 5.28623 4.96377 5.10676 4.96264 4.84872C4.95814 3.50364 4.95814 2.15857 4.96264 0.813491C4.96264 0.176349 5.15376 0.00325917 5.83841 0.00219727C7.95496 0.00219727 10.0723 0.00219727 12.1903 0.00219727C12.8334 0.00219727 13.0301 0.185907 13.0323 0.791192C13.0323 2.15467 13.0413 3.5171 13.0323 4.88058C13.0323 5.15986 13.1178 5.30534 13.3842 5.45932C16.4196 7.15836 17.9778 9.68994 17.9936 13.0201C18.0172 19.0028 18.0003 24.9845 17.9992 30.9662C17.9992 32.8978 16.8412 33.9969 14.8041 33.998C10.9263 33.998 7.04808 33.998 3.1695 33.998C1.17399 33.998 0.0092956 32.8872 0.00817137 30.9885C0.00217549 27.9444 -7.26876e-05 24.9003 0.00142628 21.8562ZM16.857 21.9422C16.857 18.9688 16.8817 15.9955 16.8491 13.0222C16.8176 10.1264 15.4922 7.89532 12.8345 6.41609C12.5288 6.2548 12.1852 6.16862 11.835 6.16548C9.94259 6.14141 8.05052 6.14141 6.15882 6.16548C5.80896 6.1699 5.46581 6.25677 5.16051 6.41821C2.48035 7.90488 1.15713 10.1614 1.14589 13.0774C1.1234 19.0071 1.13914 24.9367 1.14027 30.8653C1.14027 32.3297 1.76983 32.9233 3.32239 32.9244C7.10654 32.9244 10.8914 32.9244 14.6771 32.9244C16.2274 32.9244 16.857 32.3286 16.857 30.8632C16.8577 27.8899 16.8577 24.9162 16.857 21.9422ZM11.8845 1.1172H6.1116C6.1116 2.35644 6.1026 3.55426 6.12621 4.75209C6.12621 4.85828 6.33195 5.05473 6.44437 5.05579C8.14495 5.07491 9.84666 5.07491 11.5495 5.05579C11.6258 5.03577 11.6954 4.99751 11.7515 4.94468C11.8077 4.89185 11.8484 4.82625 11.8699 4.75421C11.8935 3.55639 11.8845 2.35856 11.8845 1.1172Z" fill="#626262"/>
<path d="M4.24353 13.5733V25.473H13.7848C13.7848 25.2681 13.7848 25.0642 13.7848 24.8603L13.7916 15.8851C13.7916 15.7258 13.7916 15.5665 13.7916 15.4072C13.7916 15.0207 13.8703 14.6565 14.3751 14.6703C14.8798 14.6841 14.9439 15.0483 14.9439 15.4327C14.9439 18.8839 14.9413 22.3358 14.9361 25.7884C14.9361 26.4075 14.7551 26.5742 14.0985 26.5742C10.6891 26.5742 7.27894 26.5742 3.86804 26.5742C3.25084 26.5742 3.05972 26.399 3.05859 25.8149C3.05859 21.6381 3.05859 17.4613 3.05859 13.2845C3.05859 12.6643 3.24634 12.4785 3.89052 12.4774C7.30143 12.4711 10.7116 12.4711 14.121 12.4774C14.5313 12.4774 14.9158 12.5698 14.9079 13.0317C14.9001 13.4937 14.5178 13.5786 14.1086 13.5786H4.23454L4.24353 13.5733Z" fill="#626262"/>
</g>
<defs>
<clipPath id="clip0_151_544">
<rect width="18" height="34" fill="white"/>
</clipPath>
</defs>
</svg>
