<svg width="17" height="39" viewBox="0 0 17 39" fill="none" xmlns="http://www.w3.org/2000/svg">
<g clip-path="url(#clip0_151_551)">
<path d="M0.0233942 27.0617C0.0233942 24.3417 0.0160466 21.6216 0.0233942 18.904C0.0319665 16.1145 1.23698 13.9461 3.55761 12.4107C4.74793 11.6241 5.35778 10.5953 5.3186 9.16222C5.28431 7.92517 5.32962 6.6869 5.29411 5.44985C5.28036 5.32374 5.24064 5.2018 5.17743 5.09162C5.11423 4.98144 5.02889 4.88537 4.92673 4.8094C4.30095 4.39056 3.94704 3.85118 3.93847 3.1048C3.93847 2.69935 3.92622 2.29268 3.93847 1.88723C3.94699 1.39389 4.14814 0.923185 4.4994 0.57463C4.85066 0.226075 5.32448 0.0269944 5.82069 0.0194811C7.59637 -0.00649371 9.37286 -0.00649371 11.1502 0.0194811C12.2242 0.0316568 13.0202 0.843776 13.0569 1.91767C13.0791 2.38386 13.0751 2.85093 13.0446 3.31666C13.011 3.7661 12.8115 4.18731 12.4844 4.49928C12.1573 4.81126 11.7257 4.99197 11.2726 5.00665C10.4962 5.02857 9.71983 5.00665 8.94588 5.01761C8.5087 5.01761 8.22827 4.84593 8.23806 4.38082C8.24786 3.91571 8.54054 3.76108 8.97283 3.77203C9.62677 3.77934 10.2795 3.77203 10.9322 3.77203C11.4833 3.77203 11.7576 3.48712 11.7894 2.95261C11.7992 2.77119 11.7894 2.58734 11.7894 2.4047C11.7894 1.50613 11.6192 1.33933 10.7289 1.33811C9.19734 1.33811 7.66576 1.33811 6.13419 1.33811C5.43616 1.33811 5.23533 1.54144 5.21573 2.23911C5.20961 2.46193 5.21573 2.68596 5.21573 2.90878C5.22308 3.3958 5.43616 3.73551 5.96274 3.76108C6.43544 3.78908 6.62403 4.08008 6.62158 4.48066C6.60933 6.42877 6.65954 8.37689 6.51504 10.325C6.41952 11.6108 5.63577 12.625 4.52995 13.3178C2.29504 14.7204 1.27985 16.7501 1.28229 19.3399C1.28719 24.6574 1.28719 29.9742 1.28229 35.2901C1.28229 36.935 2.01705 37.6631 3.65803 37.6631C6.9461 37.6631 10.2342 37.6266 13.5222 37.6814C14.8473 37.7033 15.7265 36.7378 15.7204 35.4715C15.7082 29.9924 15.7388 24.5133 15.7045 19.0343C15.6886 16.671 14.7028 14.7606 12.6662 13.4602C11.2628 12.5653 10.4742 11.3185 10.3824 9.6602C10.3481 9.03316 10.364 8.40245 10.3713 7.77419C10.3713 7.33708 10.5575 6.98885 11.0412 7.00225C11.5249 7.01564 11.6829 7.33465 11.6878 7.79123C11.6988 8.59848 11.6878 9.41426 11.7919 10.2118C11.9143 11.1249 12.4911 11.7946 13.2614 12.2877C15.7706 13.9083 16.9989 16.1913 16.9854 19.1755C16.9609 24.5937 16.9267 30.0119 17.005 35.4313C17.0356 37.5438 15.413 39.0487 13.4231 39.0049C10.1166 38.933 6.81017 38.9464 3.50373 39.0049C3.04162 39.0183 2.5816 38.9378 2.1519 38.7682C1.72221 38.5986 1.33189 38.3435 1.00487 38.0186C0.677846 37.6937 0.421021 37.3058 0.250145 36.8787C0.0792695 36.4516 -0.00205574 35.9943 0.0111512 35.5348C0.0846276 32.7052 0.0233942 29.8828 0.0233942 27.0617Z" fill="#626262"/>
<path d="M3.10158 25.1574C3.10158 24.0823 3.10158 23.0072 3.10158 21.9321C3.10158 21.4791 3.19833 21.0919 3.72736 21.0664C4.30537 21.0372 4.43273 21.4596 4.43396 21.9187C4.44131 24.0884 4.43396 26.2593 4.43396 28.4302C4.43396 28.9075 4.27231 29.3252 3.73348 29.3081C3.24364 29.2923 3.09056 28.9124 3.09791 28.4412C3.11383 27.349 3.10158 26.2532 3.10158 25.1574Z" fill="#626262"/>
<path d="M2.95996 18.5375C3.27591 17.785 3.56614 17.0216 3.91515 16.285C4.10252 15.8892 4.48827 15.8308 4.84585 16.0548C5.20344 16.2789 5.1716 16.593 5.02465 16.9619C4.79505 17.5343 4.60279 18.1207 4.44908 18.7177C4.34009 19.1414 4.23232 19.5407 3.6984 19.4835C3.19141 19.4287 3.0567 19.0561 3.10936 18.5935L2.95996 18.5375Z" fill="#626262"/>
<path d="M6.42911 15.7688C6.29195 15.5837 6.02377 15.3633 5.95274 15.0906C5.85355 14.7131 6.28828 14.3539 6.74138 14.3844C7.13571 14.4112 7.39042 14.6279 7.38553 15.0382C7.3794 15.524 7.02059 15.6543 6.42911 15.7688Z" fill="#626262"/>
</g>
<defs>
<clipPath id="clip0_151_551">
<rect width="17" height="39" fill="white"/>
</clipPath>
</defs>
</svg>
