<svg width="22" height="39" viewBox="0 0 22 39" fill="none" xmlns="http://www.w3.org/2000/svg">
<g clip-path="url(#clip0_151_480)">
<path d="M0.476025 9.72202V8.37589L0.346947 8.42028C0.237231 8.05992 0.0410404 7.70086 0.032005 7.33789C-0.00413675 5.88078 0.05394 4.42105 0.00747205 2.96524C-0.0493221 1.18824 1.40281 -0.0377693 2.96852 0.00140046C6.06639 0.0784343 9.16425 0.0732116 12.2621 0.00140046C12.6472 -0.00505192 13.0297 0.0673119 13.3864 0.214144C13.7432 0.360975 14.067 0.579244 14.3382 0.855838C14.6095 1.13243 14.8227 1.46164 14.965 1.82369C15.1073 2.18573 15.1758 2.57314 15.1664 2.96263C15.1289 4.33227 15.1664 5.70451 15.1509 7.07415C15.1509 7.48804 15.0489 7.90063 14.9882 8.36544C15.1289 8.36544 15.3367 8.36544 15.5459 8.36544C16.9657 8.38503 17.9803 9.05483 18.6669 10.3017C20.2365 13.1507 21.3363 16.1681 21.8306 19.3917C21.9733 20.4034 22.0316 21.4254 22.0049 22.447C21.9842 23.861 20.9607 24.8872 19.524 25.0583C18.2784 25.2045 17.0638 24.3598 16.7372 23.0371C16.6101 22.4448 16.5486 21.8401 16.5539 21.234C16.5049 18.7768 16.5423 16.3169 16.4249 13.8636C16.3719 12.7525 16.0634 11.644 15.8143 10.5537C15.7201 10.1424 15.4903 9.7403 15.0063 9.74161C15.0579 10.2991 15.1509 10.8344 15.1509 11.3698C15.1599 19.5288 15.1315 27.6905 15.1793 35.8482C15.1896 37.5247 14.0292 39.0602 12.0543 38.9975C9.0029 38.9009 5.94506 38.9257 2.88979 38.9975C1.49188 39.0275 0.00747457 37.8994 0.0100561 36.1538C0.0242547 27.667 0.0100605 19.1802 0.030713 10.6934C0.030713 10.354 0.25659 10.0158 0.376632 9.67763L0.476025 9.72202ZM1.40281 11.1582C1.38861 11.3776 1.37183 11.5264 1.37183 11.6805C1.37183 19.7521 1.37183 27.8237 1.37183 35.8952C1.37183 37.0977 1.91653 37.6305 3.12082 37.6318C6.06638 37.6318 9.0128 37.6318 11.9601 37.6318C13.2586 37.6318 13.7375 37.1434 13.7375 35.8273C13.7375 27.8419 13.7375 19.857 13.7375 11.8724V11.1635L1.40281 11.1582ZM13.7388 6.93053C13.7388 5.54653 13.7388 4.20301 13.7388 2.86079C13.7323 1.95597 13.2134 1.37626 12.3086 1.36973C9.14704 1.34797 5.98593 1.34797 2.82525 1.36973C2.07402 1.36973 1.48542 1.81235 1.45444 2.49129C1.38732 3.95885 1.43379 5.43033 1.43379 6.93053H13.7388ZM17.7156 11.1883L17.4962 11.2784C17.5762 11.8111 17.7118 12.3425 17.7273 12.8765C17.8034 15.4147 17.8447 17.9542 17.9041 20.4924C17.9017 21.077 17.9284 21.6614 17.9841 22.2433C18.1042 23.216 18.6682 23.7565 19.404 23.6795C20.1978 23.592 20.6741 22.9353 20.647 21.99C20.5915 20.0498 20.3282 18.137 19.6931 16.3078C19.0955 14.5817 18.3804 12.8961 17.7156 11.1935V11.1883ZM7.6321 8.36283C5.95409 8.36283 4.27608 8.3785 2.59807 8.35369C2.09467 8.34716 1.8391 8.46859 1.84297 9.03003C1.84297 9.55229 2.01593 9.74814 2.56192 9.74422C5.91794 9.72159 9.27396 9.72159 12.63 9.74422C13.1463 9.74422 13.3231 9.53009 13.3296 9.06658C13.336 8.57043 13.154 8.33933 12.6016 8.35108C10.9442 8.39156 9.28817 8.36936 7.6321 8.36806V8.36283Z" fill="#626262"/>
</g>
<defs>
<clipPath id="clip0_151_480">
<rect width="22" height="39" fill="white"/>
</clipPath>
</defs>
</svg>
