<svg width="20" height="32" viewBox="0 0 20 32" fill="none" xmlns="http://www.w3.org/2000/svg">
<g clip-path="url(#clip0_151_556)">
<path d="M10.0328 -6.57515e-05H18.9263C19.5985 -6.57515e-05 19.7348 0.117919 19.7025 0.75084C19.637 2.05068 19.535 3.34352 19.4788 4.64035C19.4576 4.98599 19.5045 5.33236 19.6172 5.66123C20.1801 7.16904 20.0937 8.62386 19.5485 10.1407C19.1979 11.1125 19.1011 12.1824 18.9961 13.2173C18.7276 15.85 18.5164 18.4876 18.2865 21.1233C18.0982 23.278 17.9182 25.4338 17.7309 27.5895C17.6269 28.8323 17.5093 30.0752 17.4001 31.318C17.3605 31.768 17.1566 31.9999 16.6405 31.9989C12.2361 31.9876 7.83166 31.9876 3.42721 31.9989C2.907 31.9989 2.70516 31.769 2.6677 31.319C2.48563 29.1803 2.31084 27.0406 2.12148 24.9028C1.90508 22.4661 1.67514 20.0304 1.45353 17.5947C1.26625 15.54 1.12164 13.4803 0.872978 11.4325C0.780381 10.6706 0.450562 9.93269 0.223751 9.18779C-0.0800522 8.18191 -0.088371 7.14604 0.293463 6.19316C0.709631 5.17229 0.562928 4.16341 0.529634 3.14254C0.503624 2.32864 0.403746 1.51574 0.36317 0.701846C0.334038 0.129918 0.480737 0.00193366 1.08522 0.00193366C4.06776 -0.000732671 7.0503 -0.00139892 10.0328 -6.57515e-05ZM1.74589 5.00931C1.58358 5.54424 1.43376 6.03818 1.28394 6.52812C0.960368 7.55599 1.04985 8.56186 1.43064 9.55974C1.57318 9.93269 1.75942 10.3086 1.80311 10.6956C2.03825 12.7603 2.24321 14.8291 2.43881 16.8948C2.60007 18.6016 2.72804 20.3114 2.87891 22.0192C3.03982 23.843 3.20629 25.6661 3.37831 27.4885C3.48235 28.6434 3.60304 29.7972 3.71644 30.9501H16.3513C16.4668 29.7812 16.5885 28.6564 16.6874 27.5295C16.8798 25.3578 17.0546 23.184 17.244 21.0123C17.4729 18.3766 17.6883 15.739 17.9536 13.1063C18.0576 12.0694 18.094 10.9686 18.4977 10.0297C19.2489 8.2799 18.9534 6.6651 18.2834 5.00631L1.74589 5.00931ZM1.42128 1.02381C1.4941 2.02368 1.56589 2.98856 1.63664 3.95944H18.428C18.4977 2.95956 18.5653 2.00768 18.6361 1.02381H1.42128Z" fill="#626262"/>
</g>
<defs>
<clipPath id="clip0_151_556">
<rect width="20" height="32" fill="white"/>
</clipPath>
</defs>
</svg>
