<svg width="32" height="33" viewBox="0 0 32 33" fill="none" xmlns="http://www.w3.org/2000/svg">
<g clip-path="url(#clip0_151_547)">
<path d="M17.1831 25.1262C17.1831 23.9993 17.1831 22.9808 17.1831 21.9611C17.1831 20.7448 17.906 20.0383 19.1432 20.0371C21.7306 20.0371 24.3176 20.0371 26.9041 20.0371C28.357 20.0371 28.991 20.6506 29.0372 22.093C29.0372 22.1684 29.0514 22.2449 29.0657 22.3921C29.4982 22.3921 29.926 22.3921 30.3538 22.3921C31.3576 22.4074 31.9892 23.015 31.9951 24.0005C32.0054 25.6678 32.0054 27.3355 31.9951 29.0036C31.9951 29.9962 31.3659 30.612 30.3704 30.6297C29.9414 30.6368 29.5112 30.6297 29.0337 30.6297C29.0337 30.8829 29.042 31.0736 29.0337 31.2655C28.9863 32.2134 28.2847 32.967 27.3402 32.9741C24.5162 32.9976 21.6923 33.0023 18.8695 32.9611C18.4772 32.9552 18.0956 32.6385 17.6974 32.4972C17.5102 32.4312 17.2578 32.3571 17.1049 32.4277C15.6911 33.0753 14.2715 33.1789 12.8079 32.602C12.6313 32.5325 12.3979 32.5714 12.1976 32.602C11.4641 32.7197 10.7376 32.9387 10.0017 32.9646C8.40426 33.0212 6.80207 32.9858 5.20462 32.9811C4.52177 32.9888 3.84422 32.8614 3.21144 32.6062C2.57865 32.3511 2.0033 31.9735 1.51889 31.4952C1.03447 31.017 0.650682 30.4477 0.389889 29.8206C0.129097 29.1935 -0.00348816 28.5211 -0.000142599 27.8426C-0.00646288 20.6427 -0.00646288 13.4421 -0.000142599 6.2406C-0.000142599 5.46465 0.147986 5.32099 0.930121 5.31746H2.319C2.48017 4.47674 2.14244 3.55949 2.86532 2.85653C3.58821 2.15358 4.4604 2.4609 5.25557 2.34786C5.28638 2.29016 5.32075 2.25719 5.31838 2.23011C5.20698 0.659357 6.10169 -0.124843 7.62567 0.0211645C7.84135 0.0411817 8.0594 0.0211645 8.27745 0.0211645C9.35348 0.0376492 10.0432 0.717054 10.0681 1.78738C10.0681 1.96165 10.0681 2.13474 10.0681 2.33255C10.9071 2.48327 11.8065 2.16064 12.5105 2.84005C13.2144 3.51945 12.9691 4.40963 13.052 5.32217C13.5261 5.32217 14.0143 5.32217 14.4978 5.32217C15.2361 5.32217 15.3961 5.48349 15.4008 6.2147C15.4008 6.48434 15.4008 6.75398 15.4008 7.08839C15.8393 7.08839 16.2303 7.07661 16.6167 7.08839C17.5979 7.12371 18.3504 7.83962 18.3563 8.81222C18.3741 11.7159 18.3563 14.6195 18.3646 17.5256C18.3646 17.9318 18.2272 18.2509 17.7851 18.2556C17.304 18.2556 17.1784 17.92 17.1784 17.4938C17.1831 14.8248 17.1831 12.1559 17.1784 9.48691C17.1784 8.30943 17.1215 8.25527 15.9519 8.26116H15.4056V8.91112C15.4056 13.7765 15.4127 18.643 15.3937 23.5119C15.3937 23.9828 15.5122 24.2701 15.9602 24.4538C16.3536 24.6269 16.7091 24.8624 17.1831 25.1262ZM14.2027 8.30119H1.21454C1.20041 8.37158 1.19052 8.44275 1.18491 8.51431C1.18491 14.9904 1.1707 21.4666 1.19203 27.9356C1.20283 28.9581 1.61646 29.9356 2.34423 30.6585C3.072 31.3814 4.05592 31.7921 5.08493 31.8025C6.80207 31.8307 8.52158 31.8095 10.2375 31.8025C10.4745 31.8025 10.7116 31.7365 11.0943 31.6847C9.95668 31.0406 8.96124 30.4861 7.97646 29.9185C5.46296 28.4761 4.61564 25.5618 5.98082 23.0161C6.41692 22.2049 6.88265 21.4089 7.33771 20.6082C7.70508 19.9594 7.90535 19.9017 8.56187 20.2691C10.2778 21.2287 11.9902 22.1966 13.7062 23.1586C13.8531 23.241 14.0107 23.3081 14.2027 23.4012V8.30119ZM19.3447 27.6884L8.24545 21.4195C7.77143 22.2673 7.27846 23.0491 6.88028 23.8745C6.47344 24.7153 6.39283 25.6755 6.65388 26.5717C6.91493 27.4678 7.49931 28.2368 8.29523 28.7316C9.8358 29.6736 11.4178 30.5614 13.02 31.3998C13.8349 31.818 14.7751 31.9276 15.6652 31.7082C16.5554 31.4887 17.335 30.9552 17.8586 30.207C18.4014 29.424 18.8339 28.5644 19.3447 27.6884ZM18.367 23.5884C18.367 24.2537 18.3433 24.8836 18.3836 25.4994C18.3931 25.6655 18.5625 25.8715 18.7166 25.9704C19.2309 26.2954 19.7725 26.5792 20.3022 26.8794C20.7407 27.1267 20.8544 27.4599 20.5913 27.9086C20.3081 28.3901 20.0391 28.88 19.7417 29.4063H27.819V23.5896L18.367 23.5884ZM11.8492 5.2998C11.8492 4.88533 11.8492 4.51678 11.8492 4.14823C11.8492 3.76083 11.6312 3.55949 11.2567 3.55949C8.88657 3.55949 6.51647 3.54536 4.14636 3.57597C3.94845 3.57597 3.62375 3.83737 3.58227 4.02577C3.49576 4.42846 3.5562 4.86295 3.5562 5.29509L11.8492 5.2998ZM27.7929 22.3579C27.9221 21.3959 27.7609 21.2064 26.8354 21.2064H19.3802C18.4523 21.2064 18.2947 21.3924 18.4203 22.3579H27.7929ZM27.7929 30.6262H27.1625C24.6561 30.6262 22.1497 30.6438 19.6433 30.6109C19.1325 30.6038 18.8635 30.8051 18.6016 31.1831C18.3777 31.5081 18.527 31.6635 18.7972 31.7589C18.988 31.8064 19.1855 31.8219 19.3814 31.8048C21.8684 31.8048 24.3571 31.8048 26.8472 31.8048C27.7621 31.8095 27.9256 31.6176 27.7882 30.6321L27.7929 30.6262ZM29.0657 29.4487C29.4496 29.4487 29.7672 29.4263 30.0801 29.4487C30.6572 29.5005 30.8409 29.2497 30.8267 28.6928C30.7958 27.4964 30.8267 26.2989 30.8148 25.1026C30.7923 23.4023 31.1442 23.5378 29.1699 23.5719C29.138 23.5719 29.1071 23.6108 29.0657 23.6378V29.4487ZM1.20979 7.03893H14.198V6.5232H1.20979V7.03893ZM8.83562 2.3408C8.97901 1.33876 8.8605 1.19276 7.91956 1.19158H7.50717C6.55202 1.19158 6.44773 1.31639 6.57097 2.3408H8.83562Z" fill="#626262"/>
<path d="M23.1083 11.7548C23.1083 12.2446 23.1166 12.7356 23.1083 13.2254C23.0893 14.0132 22.6425 14.5937 21.8616 14.7044C21.4089 14.7691 21.3165 14.9622 21.3271 15.3567C21.3473 16.0808 21.3271 16.8073 21.3342 17.5327C21.3342 17.9412 21.1861 18.2497 20.7417 18.2521C20.2973 18.2545 20.1492 17.9495 20.1492 17.5385C20.1492 16.7143 20.1409 15.8901 20.1492 15.0658C20.161 14.2769 20.6137 13.6964 21.3947 13.5869C21.8486 13.5233 21.9374 13.3291 21.9291 12.9358C21.9102 12.0338 21.9291 11.1307 21.9208 10.2276C21.9208 9.80605 22.0287 9.45281 22.5134 9.45045C22.9981 9.4481 23.1177 9.79781 23.1059 10.2217C23.1 10.7327 23.1083 11.2449 23.1083 11.7548Z" fill="#626262"/>
<path d="M27.8486 11.7653C27.8486 12.2163 27.8486 12.6673 27.8486 13.1183C27.8403 14.0261 27.4208 14.5736 26.5308 14.7161C26.1243 14.7809 26.0639 14.9751 26.0686 15.3048C26.0793 16.0302 26.0686 16.7567 26.0686 17.482C26.0686 17.9071 25.9501 18.2532 25.4666 18.2474C24.9831 18.2415 24.8741 17.887 24.8812 17.4655C24.8907 16.7013 24.8812 15.9348 24.8812 15.1706C24.8812 14.2616 25.3066 13.7164 26.199 13.5751C26.6054 13.5104 26.6647 13.3149 26.6611 12.9864C26.6517 12.0656 26.6611 11.1436 26.6611 10.2217C26.6611 9.7966 26.7796 9.45042 27.262 9.45513C27.7443 9.45984 27.8545 9.81661 27.8545 10.237C27.8391 10.7456 27.8486 11.2555 27.8486 11.7653Z" fill="#626262"/>
</g>
<defs>
<clipPath id="clip0_151_547">
<rect width="32" height="33" fill="white"/>
</clipPath>
</defs>
</svg>
