<svg width="27" height="32" viewBox="0 0 27 32" fill="none" xmlns="http://www.w3.org/2000/svg">
<g clip-path="url(#clip0_151_558)">
<path d="M8.10061 5.51985C8.10061 5.14416 8.10817 4.80542 8.09413 4.46724C8.08774 4.42571 8.07261 4.3861 8.04977 4.35114C8.02692 4.31618 7.99692 4.28671 7.96183 4.26477C7.2863 3.89624 6.98445 3.32249 7.01847 2.54682C7.03197 2.23511 7.01577 1.92176 7.02279 1.60895C7.04223 0.737839 7.74529 0.00906164 8.6001 0.00906164C10.7871 0.000234662 12.974 0.000234662 15.161 0.00906164C15.9472 0.0118201 16.599 0.625295 16.7302 1.44896C16.7399 1.51075 16.7453 1.57309 16.7556 1.66026H17.0839C19.4598 1.66026 21.8358 1.66026 24.2117 1.66026C25.6659 1.66026 26.754 2.61247 26.9797 4.07664C26.9983 4.23182 27.005 4.38824 26.9997 4.54447C26.9997 7.03589 26.9997 9.52749 26.9997 12.0193C26.9997 13.7113 25.836 14.8969 24.1788 14.8991H23.7603V15.2582C23.7603 19.8832 23.7603 24.508 23.7603 29.1326C23.7603 30.6221 22.8742 31.7023 21.4383 31.971C21.3053 31.9927 21.1707 32.0023 21.036 31.9997C14.9612 31.9997 8.88665 31.9997 2.81249 31.9997C1.17201 31.9997 0.00454965 30.8108 0.00454965 29.1375C0.0023897 22.2054 0.0023897 15.2726 0.00454965 8.33897C0.00454965 6.72308 1.18821 5.52041 2.77361 5.5182C4.42958 5.51562 6.08555 5.51562 7.74152 5.5182L8.10061 5.51985ZM19.5829 30.8974L19.618 30.8296C19.5511 30.7705 19.4825 30.7132 19.4172 30.6525L9.00833 20.9119C8.59038 20.5208 8.16919 20.1329 7.75663 19.7363C7.54334 19.531 7.50176 19.2888 7.62596 19.0626C7.75016 18.8365 7.94239 18.7162 8.18539 18.778C8.33842 18.8276 8.47764 18.9138 8.59146 19.0295C11.3994 21.6534 14.2055 24.2798 17.0099 26.9087C18.3561 28.1693 19.7061 29.4266 21.0447 30.696C21.2245 30.8671 21.386 30.8869 21.5993 30.8064C22.2721 30.5543 22.6792 29.9458 22.6792 29.1585C22.6792 22.2172 22.6792 15.2761 22.6792 8.33511C22.6792 7.34207 21.981 6.62488 21.015 6.62488C15.6511 6.62267 10.2872 6.62267 4.92331 6.62488C4.84987 6.62488 4.77643 6.63702 4.61444 6.65136C4.73593 6.74625 4.79695 6.78653 4.84933 6.83618C8.70557 10.4424 12.5604 14.0493 16.4137 17.6569C16.4817 17.7172 16.5454 17.7823 16.6044 17.8517C16.7901 18.0823 16.7842 18.3675 16.5941 18.5777C16.5072 18.6795 16.3857 18.7437 16.2541 18.7571C16.1226 18.7705 15.991 18.7322 15.8862 18.65C15.8072 18.589 15.732 18.523 15.661 18.4525L11.1062 14.1841C8.48004 11.7243 5.85335 9.26507 3.22613 6.80639C3.14405 6.7297 3.03983 6.64088 2.93777 6.62929C2.70507 6.59658 2.4682 6.61554 2.24333 6.68489C2.01846 6.75423 1.81088 6.87233 1.63475 7.03111C1.45863 7.18989 1.3181 7.38563 1.22277 7.60496C1.12745 7.82428 1.07955 8.06204 1.08237 8.30201C1.07913 12.1815 1.08093 16.0617 1.08777 19.9426C1.09435 20.0817 1.15223 20.2132 1.24976 20.3106C3.95295 22.738 6.66028 25.1599 9.37174 27.5763C9.74973 27.9128 9.81939 28.2124 9.58774 28.4921C9.34744 28.7806 9.04181 28.7508 8.65356 28.4038L1.60886 22.0997C1.45064 21.9584 1.2881 21.8238 1.08075 21.6434V21.9816C1.08075 24.3439 1.10505 26.7074 1.06995 29.0697C1.05375 30.1295 1.83565 30.9134 2.87567 30.909C8.3463 30.8853 13.818 30.8974 19.2913 30.8974H19.5829ZM16.7539 2.76142C16.6908 3.46317 16.3862 3.95969 15.7971 4.26587C15.7431 4.29456 15.6702 4.36242 15.6686 4.41428C15.6572 4.77729 15.6626 5.1414 15.6626 5.51765H16.0228C17.6608 5.51765 19.2987 5.51765 20.9367 5.51765C22.5993 5.51765 23.7587 6.69881 23.7608 8.39193C23.763 10.0851 23.7608 11.7749 23.7608 13.4674V13.7951C23.8883 13.7951 23.9693 13.7891 24.0497 13.7951C25.1891 13.8944 25.9559 13.0255 25.9348 11.8791C25.89 9.444 25.9213 7.00775 25.9208 4.57151C25.9208 3.43669 25.2566 2.76142 24.1388 2.76087C21.7726 2.76087 19.4064 2.76087 17.0401 2.76087L16.7539 2.76142ZM11.9075 1.10637C10.8556 1.10637 9.80373 1.10637 8.75183 1.10637C8.29284 1.10637 8.10115 1.30663 8.09953 1.78053C8.09953 2.09278 8.09575 2.40559 8.09953 2.71839C8.10547 3.08416 8.31552 3.3109 8.66598 3.31145C10.8058 3.31513 12.9457 3.31513 15.0859 3.31145C15.4396 3.31145 15.6502 3.08637 15.6567 2.72115C15.6621 2.4271 15.6567 2.13305 15.6567 1.83845C15.6567 1.28677 15.4828 1.10637 14.9547 1.10637C13.9406 1.10637 12.9249 1.10637 11.9075 1.10637ZM9.18707 5.49834H14.5627V4.43855H9.18815L9.18707 5.49834Z" fill="#626262"/>
</g>
<defs>
<clipPath id="clip0_151_558">
<rect width="27" height="32" fill="white"/>
</clipPath>
</defs>
</svg>
