<svg width="26" height="26" viewBox="0 0 26 26" fill="none" xmlns="http://www.w3.org/2000/svg">
<path fill-rule="evenodd" clip-rule="evenodd" d="M1.625 4.875C1.625 4.01305 1.96741 3.1864 2.5769 2.5769C3.1864 1.96741 4.01305 1.625 4.875 1.625H6.36133C7.293 1.625 8.1055 2.25983 8.33192 3.16333L9.529 7.95492C9.62601 8.34275 9.60641 8.75058 9.47267 9.12733C9.33893 9.50407 9.097 9.83297 8.77717 10.0728L7.37642 11.1237C7.23017 11.2331 7.19875 11.3934 7.23992 11.505C7.85133 13.1678 8.81681 14.6778 10.0695 15.9305C11.3222 17.1832 12.8322 18.1487 14.495 18.7601C14.6066 18.8013 14.7658 18.7698 14.8763 18.6236L15.9272 17.2228C16.167 16.903 16.4959 16.6611 16.8727 16.5273C17.2494 16.3936 17.6573 16.374 18.0451 16.471L22.8367 17.6681C23.7402 17.8945 24.375 18.707 24.375 19.6397V21.125C24.375 21.987 24.0326 22.8136 23.4231 23.4231C22.8136 24.0326 21.987 24.375 21.125 24.375H18.6875C9.26467 24.375 1.625 16.7353 1.625 7.3125V4.875Z" fill="#FD4656"/>
</svg>
